<svg id="building" xmlns="http://www.w3.org/2000/svg" width="87.767" height="87.767" viewBox="0 0 87.767 87.767">
  <g id="Group_8535" data-name="Group 8535">
    <g id="Group_8503" data-name="Group 8503" transform="translate(43.883 21.474)">
      <path id="Path_6845" data-name="Path 6845" d="M257.714,125.269h39.169a1.714,1.714,0,0,1,1.714,1.714v63.293H256V126.983A1.714,1.714,0,0,1,257.714,125.269Z" transform="translate(-256 -125.269)" fill="#008081"/>
    </g>
    <g id="Group_8504" data-name="Group 8504" transform="translate(1.286 35.271)">
      <path id="Path_6846" data-name="Path 6846" d="M9.214,205.756H48.383A1.714,1.714,0,0,1,50.1,207.47v49.5H7.5v-49.5A1.714,1.714,0,0,1,9.214,205.756Z" transform="translate(-7.5 -205.756)" fill="#008081"/>
    </g>
    <g id="Group_8505" data-name="Group 8505" transform="translate(20.87 1.286)">
      <path id="Path_6847" data-name="Path 6847" d="M123.464,7.5h42.6a1.714,1.714,0,0,1,1.714,1.714V92.7H121.75V9.214A1.714,1.714,0,0,1,123.464,7.5Z" transform="translate(-121.75 -7.5)" fill="#fff"/>
    </g>
    <g id="Group_8506" data-name="Group 8506" transform="translate(46.455 49.466)">
      <path id="Path_6848" data-name="Path 6848" d="M272.714,288.565h9.628a1.714,1.714,0,0,1,1.714,1.714v5.2a1.714,1.714,0,0,1-1.714,1.714h-9.628A1.714,1.714,0,0,1,271,295.483v-5.2A1.714,1.714,0,0,1,272.714,288.565Z" transform="translate(-271 -288.565)" fill="#97daea"/>
    </g>
    <g id="Group_8507" data-name="Group 8507" transform="translate(28.256 49.466)">
      <path id="Path_6849" data-name="Path 6849" d="M166.547,288.565h9.628a1.714,1.714,0,0,1,1.714,1.714v5.2a1.714,1.714,0,0,1-1.714,1.714h-9.628a1.714,1.714,0,0,1-1.714-1.714v-5.2A1.714,1.714,0,0,1,166.547,288.565Z" transform="translate(-164.833 -288.565)" fill="#97daea"/>
    </g>
    <g id="Group_8508" data-name="Group 8508" transform="translate(46.455 49.466)">
      <path id="Path_6850" data-name="Path 6850" d="M276.143,295.483v-5.2a1.714,1.714,0,0,1,1.714-1.714h-5.143A1.714,1.714,0,0,0,271,290.279v5.2a1.714,1.714,0,0,0,1.714,1.714h5.143A1.714,1.714,0,0,1,276.143,295.483Z" transform="translate(-271 -288.565)" fill="#4eb3da"/>
    </g>
    <g id="Group_8509" data-name="Group 8509" transform="translate(28.256 49.466)">
      <path id="Path_6851" data-name="Path 6851" d="M169.976,295.483v-5.2a1.714,1.714,0,0,1,1.714-1.714h-5.143a1.714,1.714,0,0,0-1.714,1.714v5.2a1.714,1.714,0,0,0,1.714,1.714h5.143A1.714,1.714,0,0,1,169.976,295.483Z" transform="translate(-164.833 -288.565)" fill="#4eb3da"/>
    </g>
    <g id="Group_8510" data-name="Group 8510" transform="translate(35.312 64.583)">
      <path id="Path_6852" data-name="Path 6852" d="M221.428,376.756H207.714A1.714,1.714,0,0,0,206,378.47v20.184h17.142V378.47A1.714,1.714,0,0,0,221.428,376.756Z" transform="translate(-206 -376.756)" fill="#97daea"/>
    </g>
    <g id="Group_8511" data-name="Group 8511" transform="translate(35.312 64.583)">
      <path id="Path_6853" data-name="Path 6853" d="M206,378.47v20.184h6.857v-21.9h-5.143A1.714,1.714,0,0,0,206,378.47Z" transform="translate(-206 -376.756)" fill="#4eb3da"/>
    </g>
    <g id="Group_8512" data-name="Group 8512" transform="translate(20.87 1.286)">
      <path id="Path_6854" data-name="Path 6854" d="M130.321,7.5h-6.857a1.714,1.714,0,0,0-1.714,1.714V92.7h6.857V9.214A1.714,1.714,0,0,1,130.321,7.5Z" transform="translate(-121.75 -7.5)" fill="#cdcfcf"/>
    </g>
    <g id="Group_8513" data-name="Group 8513" transform="translate(28.256 8.142)">
      <path id="Path_6855" data-name="Path 6855" d="M166.547,47.5h9.628a1.714,1.714,0,0,1,1.714,1.714v5.2a1.714,1.714,0,0,1-1.714,1.714h-9.628a1.714,1.714,0,0,1-1.714-1.714v-5.2A1.714,1.714,0,0,1,166.547,47.5Z" transform="translate(-164.833 -47.5)" fill="#97daea"/>
    </g>
    <g id="Group_8514" data-name="Group 8514" transform="translate(28.256 8.142)">
      <path id="Path_6856" data-name="Path 6856" d="M169.976,54.418v-5.2A1.714,1.714,0,0,1,171.69,47.5h-5.143a1.714,1.714,0,0,0-1.714,1.714v5.2a1.714,1.714,0,0,0,1.714,1.714h5.143A1.714,1.714,0,0,1,169.976,54.418Z" transform="translate(-164.833 -47.5)" fill="#4eb3da"/>
    </g>
    <g id="Group_8515" data-name="Group 8515" transform="translate(46.455 8.142)">
      <path id="Path_6857" data-name="Path 6857" d="M272.714,47.5h9.628a1.714,1.714,0,0,1,1.714,1.714v5.2a1.714,1.714,0,0,1-1.714,1.714h-9.628A1.714,1.714,0,0,1,271,54.418v-5.2A1.714,1.714,0,0,1,272.714,47.5Z" transform="translate(-271 -47.5)" fill="#97daea"/>
    </g>
    <g id="Group_8516" data-name="Group 8516" transform="translate(46.455 8.142)">
      <path id="Path_6858" data-name="Path 6858" d="M276.143,54.418v-5.2a1.714,1.714,0,0,1,1.714-1.714h-5.143A1.714,1.714,0,0,0,271,49.214v5.2a1.714,1.714,0,0,0,1.714,1.714h5.143A1.714,1.714,0,0,1,276.143,54.418Z" transform="translate(-271 -47.5)" fill="#4eb3da"/>
    </g>
    <g id="Group_8517" data-name="Group 8517" transform="translate(46.455 21.917)">
      <path id="Path_6859" data-name="Path 6859" d="M272.714,127.855h9.628a1.714,1.714,0,0,1,1.714,1.714v5.2a1.714,1.714,0,0,1-1.714,1.714h-9.628A1.714,1.714,0,0,1,271,134.773v-5.2A1.714,1.714,0,0,1,272.714,127.855Z" transform="translate(-271 -127.855)" fill="#97daea"/>
    </g>
    <g id="Group_8518" data-name="Group 8518" transform="translate(46.455 21.917)">
      <path id="Path_6860" data-name="Path 6860" d="M276.143,134.773v-5.2a1.714,1.714,0,0,1,1.714-1.714h-5.143A1.714,1.714,0,0,0,271,129.569v5.2a1.714,1.714,0,0,0,1.714,1.714h5.143A1.714,1.714,0,0,1,276.143,134.773Z" transform="translate(-271 -127.855)" fill="#4eb3da"/>
    </g>
    <g id="Group_8519" data-name="Group 8519" transform="translate(46.455 35.691)">
      <path id="Path_6861" data-name="Path 6861" d="M272.714,208.21h9.628a1.714,1.714,0,0,1,1.714,1.714v5.2a1.714,1.714,0,0,1-1.714,1.714h-9.628A1.714,1.714,0,0,1,271,215.128v-5.2A1.714,1.714,0,0,1,272.714,208.21Z" transform="translate(-271 -208.21)" fill="#97daea"/>
    </g>
    <g id="Group_8520" data-name="Group 8520" transform="translate(46.455 35.691)">
      <path id="Path_6862" data-name="Path 6862" d="M276.143,215.128v-5.2a1.714,1.714,0,0,1,1.714-1.714h-5.143A1.714,1.714,0,0,0,271,209.924v5.2a1.714,1.714,0,0,0,1.714,1.714h5.143A1.714,1.714,0,0,1,276.143,215.128Z" transform="translate(-271 -208.21)" fill="#4eb3da"/>
    </g>
    <g id="Group_8525" data-name="Group 8525" transform="translate(71.018 25.571)">
      <g id="Group_8521" data-name="Group 8521" transform="translate(0 41.323)">
        <path id="Path_6863" data-name="Path 6863" d="M416.006,390.24h7.914a1.714,1.714,0,0,1,1.714,1.714v5.2a1.714,1.714,0,0,1-1.714,1.714h-7.914a1.714,1.714,0,0,1-1.714-1.714v-5.2A1.714,1.714,0,0,1,416.006,390.24Z" transform="translate(-414.292 -390.24)" fill="#97daea"/>
      </g>
      <g id="Group_8522" data-name="Group 8522">
        <path id="Path_6864" data-name="Path 6864" d="M416.006,149.174h7.914a1.714,1.714,0,0,1,1.714,1.714v5.2a1.714,1.714,0,0,1-1.714,1.714h-7.914a1.714,1.714,0,0,1-1.714-1.714v-5.2A1.714,1.714,0,0,1,416.006,149.174Z" transform="translate(-414.292 -149.174)" fill="#97daea"/>
      </g>
      <g id="Group_8523" data-name="Group 8523" transform="translate(0 13.774)">
        <path id="Path_6865" data-name="Path 6865" d="M416.006,229.529h7.914a1.714,1.714,0,0,1,1.714,1.714v5.2a1.714,1.714,0,0,1-1.714,1.714h-7.914a1.714,1.714,0,0,1-1.714-1.714v-5.2A1.714,1.714,0,0,1,416.006,229.529Z" transform="translate(-414.292 -229.529)" fill="#97daea"/>
      </g>
      <g id="Group_8524" data-name="Group 8524" transform="translate(0 27.549)">
        <path id="Path_6866" data-name="Path 6866" d="M416.006,309.884h7.914a1.714,1.714,0,0,1,1.714,1.714v5.2a1.714,1.714,0,0,1-1.714,1.714h-7.914a1.714,1.714,0,0,1-1.714-1.714v-5.2A1.714,1.714,0,0,1,416.006,309.884Z" transform="translate(-414.292 -309.884)" fill="#97daea"/>
      </g>
    </g>
    <g id="Group_8529" data-name="Group 8529" transform="translate(5.407 39.346)">
      <g id="Group_8526" data-name="Group 8526">
        <path id="Path_6867" data-name="Path 6867" d="M33.256,229.529H41.17a1.714,1.714,0,0,1,1.714,1.714v5.2a1.714,1.714,0,0,1-1.714,1.714H33.256a1.714,1.714,0,0,1-1.714-1.714v-5.2A1.714,1.714,0,0,1,33.256,229.529Z" transform="translate(-31.542 -229.529)" fill="#97daea"/>
      </g>
      <g id="Group_8527" data-name="Group 8527" transform="translate(0 13.774)">
        <path id="Path_6868" data-name="Path 6868" d="M33.256,309.884H41.17a1.714,1.714,0,0,1,1.714,1.714v5.2a1.714,1.714,0,0,1-1.714,1.714H33.256a1.714,1.714,0,0,1-1.714-1.714v-5.2A1.714,1.714,0,0,1,33.256,309.884Z" transform="translate(-31.542 -309.884)" fill="#97daea"/>
      </g>
      <g id="Group_8528" data-name="Group 8528" transform="translate(0 27.549)">
        <path id="Path_6869" data-name="Path 6869" d="M33.256,390.24H41.17a1.714,1.714,0,0,1,1.714,1.714v5.2a1.714,1.714,0,0,1-1.714,1.714H33.256a1.714,1.714,0,0,1-1.714-1.714v-5.2A1.714,1.714,0,0,1,33.256,390.24Z" transform="translate(-31.542 -390.24)" fill="#97daea"/>
      </g>
    </g>
    <g id="Group_8530" data-name="Group 8530" transform="translate(28.256 21.917)">
      <path id="Path_6870" data-name="Path 6870" d="M166.547,127.855h9.628a1.714,1.714,0,0,1,1.714,1.714v5.2a1.714,1.714,0,0,1-1.714,1.714h-9.628a1.714,1.714,0,0,1-1.714-1.714v-5.2A1.714,1.714,0,0,1,166.547,127.855Z" transform="translate(-164.833 -127.855)" fill="#97daea"/>
    </g>
    <g id="Group_8531" data-name="Group 8531" transform="translate(28.256 21.917)">
      <path id="Path_6871" data-name="Path 6871" d="M169.976,134.773v-5.2a1.714,1.714,0,0,1,1.714-1.714h-5.143a1.714,1.714,0,0,0-1.714,1.714v5.2a1.714,1.714,0,0,0,1.714,1.714h5.143A1.714,1.714,0,0,1,169.976,134.773Z" transform="translate(-164.833 -127.855)" fill="#4eb3da"/>
    </g>
    <g id="Group_8532" data-name="Group 8532" transform="translate(28.256 35.691)">
      <path id="Path_6872" data-name="Path 6872" d="M166.547,208.21h9.628a1.714,1.714,0,0,1,1.714,1.714v5.2a1.714,1.714,0,0,1-1.714,1.714h-9.628a1.714,1.714,0,0,1-1.714-1.714v-5.2A1.714,1.714,0,0,1,166.547,208.21Z" transform="translate(-164.833 -208.21)" fill="#97daea"/>
    </g>
    <g id="Group_8533" data-name="Group 8533" transform="translate(28.256 35.691)">
      <path id="Path_6873" data-name="Path 6873" d="M169.976,215.128v-5.2a1.714,1.714,0,0,1,1.714-1.714h-5.143a1.714,1.714,0,0,0-1.714,1.714v5.2a1.714,1.714,0,0,0,1.714,1.714h5.143A1.714,1.714,0,0,1,169.976,215.128Z" transform="translate(-164.833 -208.21)" fill="#4eb3da"/>
    </g>
    <g id="Group_8534" data-name="Group 8534">
      <path id="Path_6874" data-name="Path 6874" d="M84.767,20.188H68.182V3a3,3,0,0,0-3-3h-42.6a3,3,0,0,0-3,3v7.059a1.286,1.286,0,0,0,2.571,0V3a.429.429,0,0,1,.429-.429h42.6A.429.429,0,0,1,65.611,3V68.811a1.286,1.286,0,0,0,2.571,0V22.759H84.767a.429.429,0,0,1,.429.429V85.2H68.182V73.61a1.286,1.286,0,0,0-2.571,0V85.2H53.74V66.3a3,3,0,0,0-3-3H37.027a3,3,0,0,0-3,3V85.2H22.156V14.858a1.286,1.286,0,0,0-2.571,0V33.985H3a3,3,0,0,0-3,3v49.5a1.286,1.286,0,0,0,1.286,1.286h85.2a1.286,1.286,0,0,0,1.286-1.286V23.188A3,3,0,0,0,84.767,20.188Zm-82.2,16.8A.429.429,0,0,1,3,36.556H19.585V85.2H2.571ZM36.6,66.3a.429.429,0,0,1,.429-.429H50.74a.429.429,0,0,1,.429.429V85.2H36.6Z" fill="#015354"/>
      <path id="Path_6875" data-name="Path 6875" d="M160.333,51.2h9.628a3,3,0,0,0,3-3V43a3,3,0,0,0-3-3h-9.628a3,3,0,0,0-3,3v5.2A3,3,0,0,0,160.333,51.2ZM159.9,43a.429.429,0,0,1,.429-.429h9.628a.429.429,0,0,1,.429.429v5.2a.429.429,0,0,1-.429.429h-9.628a.429.429,0,0,1-.429-.429Z" transform="translate(-130.363 -33.143)" fill="#015354"/>
      <path id="Path_6876" data-name="Path 6876" d="M266.5,51.2h9.628a3,3,0,0,0,3-3V43a3,3,0,0,0-3-3H266.5a3,3,0,0,0-3,3v5.2A3,3,0,0,0,266.5,51.2Zm-.429-8.2a.429.429,0,0,1,.429-.429h9.628a.429.429,0,0,1,.429.429v5.2a.429.429,0,0,1-.429.429H266.5a.429.429,0,0,1-.429-.429Z" transform="translate(-218.331 -33.143)" fill="#015354"/>
      <path id="Path_6877" data-name="Path 6877" d="M263.5,128.558a3,3,0,0,0,3,3h9.628a3,3,0,0,0,3-3v-5.2a3,3,0,0,0-3-3H266.5a3,3,0,0,0-3,3Zm2.571-5.2a.429.429,0,0,1,.429-.429h9.628a.429.429,0,0,1,.429.429v5.2a.429.429,0,0,1-.429.429H266.5a.429.429,0,0,1-.429-.429Z" transform="translate(-218.331 -99.724)" fill="#015354"/>
      <path id="Path_6878" data-name="Path 6878" d="M263.5,208.913a3,3,0,0,0,3,3h9.628a3,3,0,0,0,3-3v-5.2a3,3,0,0,0-3-3H266.5a3,3,0,0,0-3,3Zm2.571-5.2a.429.429,0,0,1,.429-.429h9.628a.429.429,0,0,1,.429.429v5.2a.429.429,0,0,1-.429.429H266.5a.429.429,0,0,1-.429-.429Z" transform="translate(-218.331 -166.304)" fill="#015354"/>
      <path id="Path_6879" data-name="Path 6879" d="M157.333,128.558a3,3,0,0,0,3,3h9.628a3,3,0,0,0,3-3v-5.2a3,3,0,0,0-3-3h-9.628a3,3,0,0,0-3,3Zm2.571-5.2a.429.429,0,0,1,.429-.429h9.628a.429.429,0,0,1,.429.429v5.2a.429.429,0,0,1-.429.429h-9.628a.429.429,0,0,1-.429-.429v-5.2Z" transform="translate(-130.363 -99.724)" fill="#015354"/>
      <path id="Path_6880" data-name="Path 6880" d="M157.333,208.913a3,3,0,0,0,3,3h9.628a3,3,0,0,0,3-3v-5.2a3,3,0,0,0-3-3h-9.628a3,3,0,0,0-3,3Zm2.571-5.2a.429.429,0,0,1,.429-.429h9.628a.429.429,0,0,1,.429.429v5.2a.429.429,0,0,1-.429.429h-9.628a.429.429,0,0,1-.429-.429v-5.2Z" transform="translate(-130.363 -166.304)" fill="#015354"/>
      <path id="Path_6881" data-name="Path 6881" d="M263.5,289.268a3,3,0,0,0,3,3h9.628a3,3,0,0,0,3-3v-5.2a3,3,0,0,0-3-3H266.5a3,3,0,0,0-3,3Zm2.571-5.2a.429.429,0,0,1,.429-.429h9.628a.429.429,0,0,1,.429.429v5.2a.429.429,0,0,1-.429.429H266.5a.429.429,0,0,1-.429-.429Z" transform="translate(-218.331 -232.885)" fill="#015354"/>
      <path id="Path_6882" data-name="Path 6882" d="M157.333,289.268a3,3,0,0,0,3,3h9.628a3,3,0,0,0,3-3v-5.2a3,3,0,0,0-3-3h-9.628a3,3,0,0,0-3,3Zm2.571-5.2a.429.429,0,0,1,.429-.429h9.628a.429.429,0,0,1,.429.429v5.2a.429.429,0,0,1-.429.429h-9.628a.429.429,0,0,1-.429-.429v-5.2Z" transform="translate(-130.363 -232.885)" fill="#015354"/>
      <path id="Path_6883" data-name="Path 6883" d="M406.792,390.943a3,3,0,0,0,3,3h7.914a3,3,0,0,0,3-3v-5.2a3,3,0,0,0-3-3h-7.914a3,3,0,0,0-3,3Zm2.571-5.2a.429.429,0,0,1,.429-.429h7.914a.429.429,0,0,1,.429.429v5.2a.429.429,0,0,1-.429.429h-7.914a.429.429,0,0,1-.429-.429Z" transform="translate(-337.06 -317.131)" fill="#015354"/>
      <path id="Path_6884" data-name="Path 6884" d="M409.792,152.877h7.914a3,3,0,0,0,3-3v-5.2a3,3,0,0,0-3-3h-7.914a3,3,0,0,0-3,3v5.2A3,3,0,0,0,409.792,152.877Zm-.429-8.2a.429.429,0,0,1,.429-.429h7.914a.429.429,0,0,1,.429.429v5.2a.429.429,0,0,1-.429.429h-7.914a.429.429,0,0,1-.429-.429Z" transform="translate(-337.06 -117.388)" fill="#015354"/>
      <path id="Path_6885" data-name="Path 6885" d="M406.792,230.232a3,3,0,0,0,3,3h7.914a3,3,0,0,0,3-3v-5.2a3,3,0,0,0-3-3h-7.914a3,3,0,0,0-3,3Zm2.571-5.2a.429.429,0,0,1,.429-.429h7.914a.429.429,0,0,1,.429.429v5.2a.429.429,0,0,1-.429.429h-7.914a.429.429,0,0,1-.429-.429Z" transform="translate(-337.06 -183.969)" fill="#015354"/>
      <path id="Path_6886" data-name="Path 6886" d="M406.792,310.587a3,3,0,0,0,3,3h7.914a3,3,0,0,0,3-3v-5.2a3,3,0,0,0-3-3h-7.914a3,3,0,0,0-3,3Zm2.571-5.2a.429.429,0,0,1,.429-.429h7.914a.429.429,0,0,1,.429.429v5.2a.429.429,0,0,1-.429.429h-7.914a.429.429,0,0,1-.429-.429Z" transform="translate(-337.06 -250.549)" fill="#015354"/>
      <path id="Path_6887" data-name="Path 6887" d="M34.956,222.029H27.042a3,3,0,0,0-3,3v5.2a3,3,0,0,0,3,3h7.914a3,3,0,0,0,3-3v-5.2A3,3,0,0,0,34.956,222.029Zm.429,8.2a.429.429,0,0,1-.429.429H27.042a.429.429,0,0,1-.429-.429v-5.2a.429.429,0,0,1,.429-.429h7.914a.429.429,0,0,1,.429.429Z" transform="translate(-19.921 -183.969)" fill="#015354"/>
      <path id="Path_6888" data-name="Path 6888" d="M34.956,302.384H27.042a3,3,0,0,0-3,3v5.2a3,3,0,0,0,3,3h7.914a3,3,0,0,0,3-3v-5.2A3,3,0,0,0,34.956,302.384Zm.429,8.2a.429.429,0,0,1-.429.429H27.042a.429.429,0,0,1-.429-.429v-5.2a.429.429,0,0,1,.429-.429h7.914a.429.429,0,0,1,.429.429Z" transform="translate(-19.921 -250.549)" fill="#015354"/>
      <path id="Path_6889" data-name="Path 6889" d="M34.956,382.739H27.042a3,3,0,0,0-3,3v5.2a3,3,0,0,0,3,3h7.914a3,3,0,0,0,3-3v-5.2A3,3,0,0,0,34.956,382.739Zm.429,8.2a.429.429,0,0,1-.429.429H27.042a.429.429,0,0,1-.429-.429v-5.2a.429.429,0,0,1,.429-.429h7.914a.429.429,0,0,1,.429.429Z" transform="translate(-19.921 -317.13)" fill="#015354"/>
    </g>
  </g>
</svg>
