<svg id="car" xmlns="http://www.w3.org/2000/svg" width="87.76" height="52.373" viewBox="0 0 87.76 52.373">
  <g id="Group_8567" data-name="Group 8567" transform="translate(0 0)">
    <g id="Group_8536" data-name="Group 8536" transform="translate(77.851 9.909)">
      <path id="Path_6890" data-name="Path 6890" d="M57.415,24.246,56,21.415,57.415,20h5.662l1.415,2.828-1.415,1.418Z" transform="translate(-56 -20)" fill="#e6d938"/>
    </g>
    <g id="Group_8537" data-name="Group 8537" transform="translate(1.416 9.909)">
      <path id="Path_6891" data-name="Path 6891" d="M9.077,24.246l1.415-2.831L9.077,20H3.415L2,22.828l1.415,1.418Z" transform="translate(-2 -20)" fill="#e6d938"/>
    </g>
    <g id="Group_8538" data-name="Group 8538" transform="translate(7.078 36.803)">
      <path id="Path_6892" data-name="Path 6892" d="M61.2,48.5l4.246,1.82L79.6,48.91V44.663L75.358,39v.218L58.371,41.831H27.232L10.246,39.219V39L6,44.663V48.91l14.155,1.415L24.4,48.5l1.415-1.012,1.415,2.831h31.14l1.415-2.831Z" transform="translate(-6 -39)" fill="#e6d938"/>
    </g>
    <g id="Group_8539" data-name="Group 8539" transform="translate(77.496 29.725)">
      <path id="Path_6893" data-name="Path 6893" d="M60.351,49.884l1.57-1.079a2.938,2.938,0,0,0,1.261-2.426V34l-7.076,7.076-.357,1.415,3.186,4.248v4.246Z" transform="translate(-55.749 -34)" fill="#e6d938"/>
    </g>
    <g id="Group_8540" data-name="Group 8540" transform="translate(2.831 29.725)">
      <path id="Path_6894" data-name="Path 6894" d="M5.831,49.884l-1.57-1.079A2.938,2.938,0,0,1,3,46.38V34l7.076,7.076.357,1.415L7.246,46.739v4.246Z" transform="translate(-3 -34)" fill="#e6d938"/>
    </g>
    <g id="Group_8541" data-name="Group 8541" transform="translate(11.324 1.416)">
      <path id="Path_6895" data-name="Path 6895" d="M74.112,29.57l-2.578-5.157a17,17,0,0,0-4.582-5.668h0A16.978,16.978,0,0,0,57.47,15.06L41.556,14,25.642,15.062a16.978,16.978,0,0,0-9.481,3.684h0a17,17,0,0,0-4.582,5.668L9,29.57" transform="translate(-9 -14)" fill="#fff"/>
    </g>
    <g id="Group_8542" data-name="Group 8542" transform="translate(72.19 45.295)">
      <path id="Path_6896" data-name="Path 6896" d="M63.324,45v2.745a2.875,2.875,0,0,1-2.831,2.917H54.831A2.8,2.8,0,0,1,52,47.831" transform="translate(-52 -45)" fill="#fff"/>
    </g>
    <g id="Group_8543" data-name="Group 8543" transform="translate(4.247 45.295)">
      <path id="Path_6897" data-name="Path 6897" d="M4,45v2.745a2.875,2.875,0,0,0,2.831,2.917h5.662a2.8,2.8,0,0,0,2.831-2.831" transform="translate(-4 -45)" fill="#fff"/>
    </g>
    <g id="Group_8544" data-name="Group 8544" transform="translate(72.19 48.04)">
      <path id="Path_6898" data-name="Path 6898" d="M60.493,49.856H54.831A2.875,2.875,0,0,1,52,46.939" transform="translate(-52 -46.939)" fill="#4d5d7a"/>
    </g>
    <g id="Group_8545" data-name="Group 8545" transform="translate(11.324 16.986)">
      <path id="Path_6899" data-name="Path 6899" d="M9,25H74.112V41.986H9Z" transform="translate(-9 -25)" fill="#e6d938"/>
    </g>
    <g id="Group_8546" data-name="Group 8546" transform="translate(2.831 16.985)">
      <path id="Path_6900" data-name="Path 6900" d="M12.084,25,22.817,36.324l9.908,2.831h5.662l2.831-1.415H46.88l2.831,1.415h5.662l9.908-2.831L76.6,25l5.663,2.832L85.1,32.078V37.74L78.02,44.817l-18.4,2.83H28.478l-18.4-2.831L3,37.74V32.078l2.831-4.246L11.493,25Z" transform="translate(-3 -24.999)" fill="#e6d938"/>
    </g>
    <g id="Group_8547" data-name="Group 8547" transform="translate(8.098 23.248)">
      <path id="Path_6901" data-name="Path 6901" d="M17.024,35.9l-4.641,3.3L6.721,35.727l.395-6.3Z" transform="translate(-6.721 -29.424)" fill="#97daea"/>
    </g>
    <g id="Group_8548" data-name="Group 8548" transform="translate(69.359 23.248)">
      <path id="Path_6902" data-name="Path 6902" d="M50,35.9l4.641,3.3L60.3,35.727l-.395-6.3Z" transform="translate(-50 -29.424)" fill="#97daea"/>
    </g>
    <g id="Group_8549" data-name="Group 8549" transform="translate(1.416 29.083)">
      <path id="Path_6903" data-name="Path 6903" d="M6.861,52.212,3.875,50.161A4.345,4.345,0,0,1,2,46.568V33.546H4.831V46.568a1.524,1.524,0,0,0,.647,1.261l2.985,2.051Z" transform="translate(-2 -33.546)" fill="#015354"/>
    </g>
    <g id="Group_8550" data-name="Group 8550" transform="translate(11.324 15.571)">
      <path id="Path_6904" data-name="Path 6904" d="M9,24H74.11v2.831H9Z" transform="translate(-9 -24)" fill="#015354"/>
    </g>
    <g id="Group_8551" data-name="Group 8551" transform="translate(6.683 21.832)">
      <path id="Path_6905" data-name="Path 6905" d="M12.8,41.032a1.414,1.414,0,0,1-.739-.208L6.4,37.35a1.417,1.417,0,0,1-.674-1.3l.395-6.3a1.415,1.415,0,0,1,2.187-1.1l9.908,6.477a1.413,1.413,0,0,1,.045,2.337l-4.641,3.3a1.414,1.414,0,0,1-.82.262ZM8.6,35.381l4.137,2.538,2.188-1.554-6.136-4.01Z" transform="translate(-5.721 -28.423)" fill="#015354"/>
    </g>
    <g id="Group_8552" data-name="Group 8552" transform="translate(67.943 21.833)">
      <path id="Path_6906" data-name="Path 6906" d="M55.057,41.031a1.414,1.414,0,0,1-.82-.262L49.6,37.47a1.413,1.413,0,0,1,.045-2.337l9.908-6.477a1.415,1.415,0,0,1,2.187,1.1l.395,6.3a1.414,1.414,0,0,1-.674,1.3L55.8,40.825a1.422,1.422,0,0,1-.739.207Zm-2.13-4.665,2.188,1.554,4.137-2.538-.19-3.026Z" transform="translate(-49 -28.424)" fill="#015354"/>
    </g>
    <g id="Group_8553" data-name="Group 8553" transform="translate(0 8.493)">
      <path id="Path_6907" data-name="Path 6907" d="M9.642,28.126,8.618,26.077H3.831a1.413,1.413,0,0,1-1-.415L1.413,24.246a1.416,1.416,0,0,1-.265-1.633l1.415-2.83A1.417,1.417,0,0,1,3.831,19H9.493a1.409,1.409,0,0,1,1,.415l1.415,1.415a1.415,1.415,0,0,1,.266,1.633l-1.1,2.2,1.1,2.2ZM4.419,23.246h4.2l.568-1.137-.279-.279h-4.2l-.568,1.135Z" transform="translate(-1 -19)" fill="#015354"/>
    </g>
    <g id="Group_8554" data-name="Group 8554" transform="translate(76.437 8.493)">
      <path id="Path_6908" data-name="Path 6908" d="M57.682,28.126,55.15,26.859l1.1-2.2-1.1-2.2a1.415,1.415,0,0,1,.266-1.633l1.415-1.415a1.4,1.4,0,0,1,1-.415h5.662a1.417,1.417,0,0,1,1.267.783l1.415,2.83a1.416,1.416,0,0,1-.265,1.633l-1.415,1.417a1.413,1.413,0,0,1-1,.415H58.705Zm1.023-4.879h4.2l.28-.28-.568-1.135h-4.2l-.279.279Z" transform="translate(-55.001 -19)" fill="#015354"/>
    </g>
    <g id="Group_8555" data-name="Group 8555" transform="translate(5.662 35.952)">
      <path id="Path_6909" data-name="Path 6909" d="M20.57,51.989a1.2,1.2,0,0,1-.142-.007L6.274,50.566A1.416,1.416,0,0,1,5,49.158V44.912a1.415,1.415,0,0,1,.283-.849L9.528,38.4l2.265,1.7L7.831,45.383v2.494l12.517,1.251,9.574-4.1,1.114,2.6-9.908,4.246a1.4,1.4,0,0,1-.558.115Z" transform="translate(-5 -38.399)" fill="#015354"/>
    </g>
    <g id="Group_8556" data-name="Group 8556" transform="translate(56.062 35.953)">
      <path id="Path_6910" data-name="Path 6910" d="M51.072,51.989a1.4,1.4,0,0,1-.558-.115l-9.908-4.246,1.114-2.6,9.574,4.1,12.517-1.251V45.383L59.848,40.1l2.265-1.7,4.246,5.662a1.415,1.415,0,0,1,.283.849v4.246a1.416,1.416,0,0,1-1.274,1.408L51.214,51.981a1.2,1.2,0,0,1-.142.007Z" transform="translate(-40.606 -38.4)" fill="#015354"/>
    </g>
    <g id="Group_8557" data-name="Group 8557" transform="translate(1.416 15.569)">
      <path id="Path_6911" data-name="Path 6911" d="M28.894,49.479a1.365,1.365,0,0,1-.215-.017l-18.4-2.831a1.419,1.419,0,0,1-.786-.4L2.415,39.156a1.412,1.412,0,0,1-.415-1V32.493a1.423,1.423,0,0,1,.238-.786l2.831-4.246a1.418,1.418,0,0,1,.545-.481l5.662-2.831A1.419,1.419,0,0,1,11.908,24H12.5a1.419,1.419,0,0,1,1.028.442L24,35.486l9.344,2.67h5.13L41,36.888a1.419,1.419,0,0,1,.633-.149H47.3a1.419,1.419,0,0,1,.633.149l2.532,1.267h5.13l9.363-2.675L76.016,24.414a1.417,1.417,0,0,1,1.633-.266l5.663,2.832a1.428,1.428,0,0,1,.545.481l2.831,4.246a1.413,1.413,0,0,1,.239.786v5.662a1.412,1.412,0,0,1-.415,1l-7.077,7.077a1.414,1.414,0,0,1-.786.4l-18.4,2.831a1.365,1.365,0,0,1-.215.017ZM11.167,43.9,29,46.648H59.925L77.763,43.9,84.1,37.569V32.922l-2.385-3.577L77.3,27.137,66.7,37.74a1.4,1.4,0,0,1-.613.36l-9.908,2.831a1.373,1.373,0,0,1-.388.055H50.126a1.419,1.419,0,0,1-.633-.149l-2.532-1.267H41.969l-2.532,1.267a1.429,1.429,0,0,1-.634.149H33.14a1.373,1.373,0,0,1-.388-.055L22.844,38.1a1.415,1.415,0,0,1-.638-.386L12,26.95,7.216,29.345,4.831,32.922v4.647Z" transform="translate(-2 -23.999)" fill="#015354"/>
    </g>
    <g id="Group_8558" data-name="Group 8558" transform="translate(79.88 29.083)">
      <path id="Path_6912" data-name="Path 6912" d="M59.037,52.212l-1.6-2.333,2.985-2.051a1.517,1.517,0,0,0,.648-1.26V33.546H63.9V46.568a4.348,4.348,0,0,1-1.874,3.594Z" transform="translate(-57.433 -33.546)" fill="#015354"/>
    </g>
    <g id="Group_8559" data-name="Group 8559" transform="translate(42.465 32.555)">
      <path id="Path_6913" data-name="Path 6913" d="M31,36h2.831V38.83H31Z" transform="translate(-31 -35.999)" fill="#015354"/>
    </g>
    <g id="Group_8560" data-name="Group 8560" transform="translate(25.628 44.661)">
      <path id="Path_6914" data-name="Path 6914" d="M52.928,49.433H21.787a1.417,1.417,0,0,1-1.267-.783L19.1,45.819l2.532-1.267,1.025,2.05H52.053l1.025-2.048L55.61,45.82l-1.415,2.831A1.418,1.418,0,0,1,52.928,49.433Z" transform="translate(-19.105 -44.552)" fill="#015354"/>
    </g>
    <g id="Group_8561" data-name="Group 8561" transform="translate(2.831 45.295)">
      <path id="Path_6915" data-name="Path 6915" d="M12.908,52.077H7.246A4.3,4.3,0,0,1,3,47.745V45H5.831v2.745a1.462,1.462,0,0,0,1.415,1.5h5.662a1.462,1.462,0,0,0,1.415-1.5h2.831A4.3,4.3,0,0,1,12.908,52.077Z" transform="translate(-3 -45)" fill="#015354"/>
    </g>
    <g id="Group_8562" data-name="Group 8562" transform="translate(7.078 48.04)">
      <path id="Path_6916" data-name="Path 6916" d="M11.662,51.272H6V48.441h5.662a1.462,1.462,0,0,0,1.415-1.5h2.831A4.3,4.3,0,0,1,11.662,51.272Z" transform="translate(-6 -46.939)" fill="#015354"/>
    </g>
    <g id="Group_8563" data-name="Group 8563" transform="translate(70.774 45.295)">
      <path id="Path_6917" data-name="Path 6917" d="M60.908,52.077H55.246A4.2,4.2,0,0,1,51,47.831h2.831a1.385,1.385,0,0,0,1.415,1.415h5.662a1.462,1.462,0,0,0,1.415-1.5V45h2.831v2.745A4.3,4.3,0,0,1,60.908,52.077Z" transform="translate(-51 -45)" fill="#015354"/>
    </g>
    <g id="Group_8564" data-name="Group 8564" transform="translate(70.774 48.04)">
      <path id="Path_6918" data-name="Path 6918" d="M60.908,51.272H55.246A4.3,4.3,0,0,1,51,46.939h2.831a1.462,1.462,0,0,0,1.415,1.5h5.662Z" transform="translate(-51 -46.939)" fill="#015354"/>
    </g>
    <g id="Group_8565" data-name="Group 8565" transform="translate(10.059)">
      <path id="Path_6919" data-name="Path 6919" d="M73.216,30.618l-2.578-5.157a15.689,15.689,0,0,0-4.17-5.172l-.031-.025a15.489,15.489,0,0,0-8.691-3.377L41.927,15.834,26.108,16.888a15.5,15.5,0,0,0-8.691,3.377l-.033.025a15.685,15.685,0,0,0-4.169,5.172L10.638,30.62,8.106,29.353,10.684,24.2a18.536,18.536,0,0,1,4.963-6.139l.035-.027A18.307,18.307,0,0,1,25.92,14.065L41.832,13a1.392,1.392,0,0,1,.188,0l15.913,1.062a18.315,18.315,0,0,1,10.24,3.966.316.316,0,0,1,.034.027A18.536,18.536,0,0,1,73.17,24.2l2.578,5.157Z" transform="translate(-8.106 -13)" fill="#015354"/>
    </g>
    <g id="Group_8566" data-name="Group 8566" transform="translate(38.815 4.515)">
      <path id="Path_6920" data-name="Path 6920" d="M0,0H12.176V2.831H0Z" transform="translate(0 7.074) rotate(-35.518)" fill="#015354"/>
    </g>
  </g>
</svg>
