<svg xmlns="http://www.w3.org/2000/svg" width="58.018" height="79.122" viewBox="0 0 58.018 79.122">
  <g id="easy_add_ads" data-name="easy add ads" transform="translate(-612.991 -2436.438)">
    <g id="order" transform="translate(610.344 2435.91)">
      <g id="layer1" transform="translate(2.647 0.528)">
        <path id="path14840" d="M6.6,280.6a3.979,3.979,0,0,0-3.951,3.964v65.933A3.977,3.977,0,0,0,6.6,354.453H24.962l-5.749-15.83H9.238A1.319,1.319,0,0,1,7.911,337.3V292.474a1.319,1.319,0,0,1,1.326-1.324H48.8a1.319,1.319,0,0,1,1.314,1.324v33a7.068,7.068,0,0,1,4.955,2.669c.1-.015.213-.01.319-.02V284.56a3.979,3.979,0,0,0-3.951-3.964Zm18.457,5.277H32.97a1.319,1.319,0,1,1,0,2.638H25.055a1.319,1.319,0,1,1,0-2.638Zm11.214,29.02a4.63,4.63,0,0,0-4.613,4.613v17c-.541-.9-1.084-1.8-1.625-2.7a7.129,7.129,0,0,0-2.1-2.357,4.236,4.236,0,0,0-3.408-.575,4.582,4.582,0,0,0-3.235,5.733l5.437,15.031c1.409,5.258,6.959,7.943,6.959,7.943a1.315,1.315,0,0,0,.613.144H53.9a1.421,1.421,0,0,0,1.095-.366s5.674-5.517,5.674-12.814V335.324a4.633,4.633,0,0,0-4.616-4.613,4.536,4.536,0,0,0-2.212.6,4.619,4.619,0,0,0-4.376-3.235,4.561,4.561,0,0,0-2.223.6,4.62,4.62,0,0,0-4.379-3.237,4.539,4.539,0,0,0-1.976.466V319.5a4.632,4.632,0,0,0-4.615-4.613ZM14.443,316.21a1.324,1.324,0,0,0-1.254,1.311,5.293,5.293,0,0,0,5.275,5.275H29.019V319.5a7.153,7.153,0,0,1,.809-3.294Zm28.27,0a7.148,7.148,0,0,1,.809,3.294v1.458a5.227,5.227,0,0,0,1.314-3.441,1.317,1.317,0,0,0-1.314-1.311Z" transform="translate(-2.647 -280.595)" fill="#fff"/>
      </g>
    </g>
    <g id="Group_40789" data-name="Group 40789" transform="translate(162.018 211.415)">
      <path id="Subtraction_5" data-name="Subtraction 5" d="M26.283,11.088a2.5,2.5,0,0,1-2.577-1.977,1.857,1.857,0,0,1-.024-.284,2.451,2.451,0,0,1,2.6-2.26,2.451,2.451,0,0,1,2.6,2.26,1.726,1.726,0,0,1-.012.192A2.5,2.5,0,0,1,26.283,11.088Zm-21.019,0A2.5,2.5,0,0,1,2.686,9.109a1.857,1.857,0,0,1-.024-.284,2.451,2.451,0,0,1,2.6-2.26,2.451,2.451,0,0,1,2.6,2.26c0,.049,0,.1-.008.142l0,.049A2.5,2.5,0,0,1,5.264,11.086ZM29.538,9.367h-.21a2.265,2.265,0,0,0,.052-.312c.007-.076.014-.152.014-.229a2.89,2.89,0,0,0-3.033-2.714A2.889,2.889,0,0,0,23.33,8.826a2.506,2.506,0,0,0,.026.34c.009.064.024.128.038.189L8.087,9.329a2.7,2.7,0,0,0,.043-.274c.007-.074.014-.151.014-.229A2.891,2.891,0,0,0,5.11,6.111,2.889,2.889,0,0,0,2.079,8.826a2.174,2.174,0,0,0,.026.34.449.449,0,0,0,.009.052l.005.026-.527-.106A1.863,1.863,0,0,1,.01,7.175,3.52,3.52,0,0,1,.759,5.232C2.111,3.653,7.784,2.99,7.841,2.983A39.139,39.139,0,0,1,14.364.64,26.9,26.9,0,0,1,20.58,0a49.373,49.373,0,0,1,7.769.666.816.816,0,0,1,.712.749l1.792,1.778a1.306,1.306,0,0,1,.4.929l0,1.31.487.414a.6.6,0,0,1,.215.478l-.017.4a2.633,2.633,0,0,1-1.527,2.211l-.87.428ZM19.655.837a22.1,22.1,0,0,0-8.573,1.494l-.234.837a1.259,1.259,0,0,1,.21.828l9.5-.669V.851C20.277.842,19.972.837,19.655.837ZM21.606.9h0v2.35l4.469-.317.584-.615a.427.427,0,0,0,.1-.442.5.5,0,0,0-.369-.3A32.54,32.54,0,0,0,21.606.9Z" transform="translate(463.436 2243.061)" fill="#e6d938"/>
    </g>
  </g>
</svg>
