<svg xmlns="http://www.w3.org/2000/svg" width="63.488" height="68.76" viewBox="0 0 63.488 68.76">
  <g id="loc" transform="translate(-492.316 -2320.54)">
    <g id="Group_40788" data-name="Group 40788">
      <g id="Group_40786" data-name="Group 40786" transform="translate(-2 4.5)">
        <ellipse id="Ellipse_119" data-name="Ellipse 119" cx="16" cy="15.5" rx="16" ry="15.5" transform="translate(522 2341.941)" fill="#fff"/>
        <g id="pin" transform="translate(518.001 2337.241)">
          <g id="Group_8588" data-name="Group 8588" transform="translate(0 0)">
            <g id="Page-1_72_" transform="translate(0 0)">
              <g id="_x30_73---Flat" transform="translate(0)">
                <path id="Union_11" data-name="Union 11" d="M13.167,44.256C7.526,36.914.284,27.359,0,19.834-.211,9.174,9.136-.214,19.8,0h.028a19.764,19.764,0,0,1,19.771,19.83c.277,6.511-8.755,19.023-12.938,24.208a8.693,8.693,0,0,1-13.489.215Zm4.8-38.829L7.321,15.017A2.141,2.141,0,0,0,6.74,17.4a2.2,2.2,0,0,0,1.988,1.406V29.555A2.154,2.154,0,0,0,10.878,31.7H27.99a2.139,2.139,0,0,0,2.133-2.144V18.809A2.207,2.207,0,0,0,32.128,17.4a2.154,2.154,0,0,0-.585-2.386l-1.42-1.278-.977-5.081c0-1.191-.713-1.645-3.293-2.729a2.131,2.131,0,0,0-2.13,2.026L20.907,5.427a2.181,2.181,0,0,0-2.944,0Zm.464,24.066V26.476a1.008,1.008,0,1,1,2.016,0v3.016Zm4.031-.118v-3.03a3.025,3.025,0,0,0-6.05,0v3.03H11.37V19.283H27.5V29.375ZM29.4,16.208H19.436L8.385,16.163l11.1-9.018,10.961,9.063Z" transform="translate(0 0)" fill="#008081" stroke="#fff" stroke-width="0.4"/>
              </g>
            </g>
          </g>
        </g>
      </g>
      <path id="Subtraction_6" data-name="Subtraction 6" d="M6533.423,13413a8.023,8.023,0,0,1-6.188-2.883,125.818,125.818,0,0,1-7.982-11.283c-2.742-4.566-4.132-8.3-4.249-11.408a17.082,17.082,0,0,1,1.364-7.008,19.062,19.062,0,0,1,9.719-9.918,17.049,17.049,0,0,1,6.968-1.5l.337,0h.03a18.358,18.358,0,0,1,18.365,18.426,10.113,10.113,0,0,1-.41,3c-8.217,2.621-14.058,10.595-13.888,18.962a14.571,14.571,0,0,0,.289,2.339A8.04,8.04,0,0,1,6533.423,13413Z" transform="translate(-6022.485 -11048.262)" fill="#fff" stroke="#fff" stroke-width="0.4"/>
    </g>
    <g id="Group_40787" data-name="Group 40787" transform="translate(31.018 90.415)">
      <path id="Subtraction_5" data-name="Subtraction 5" d="M26.283,11.088a2.5,2.5,0,0,1-2.577-1.977,1.857,1.857,0,0,1-.024-.284,2.451,2.451,0,0,1,2.6-2.26,2.451,2.451,0,0,1,2.6,2.26,1.726,1.726,0,0,1-.012.192A2.5,2.5,0,0,1,26.283,11.088Zm-21.019,0A2.5,2.5,0,0,1,2.686,9.109a1.857,1.857,0,0,1-.024-.284,2.451,2.451,0,0,1,2.6-2.26,2.451,2.451,0,0,1,2.6,2.26c0,.049,0,.1-.008.142l0,.049A2.5,2.5,0,0,1,5.264,11.086ZM29.538,9.367h-.21a2.265,2.265,0,0,0,.052-.312c.007-.076.014-.152.014-.229a2.89,2.89,0,0,0-3.033-2.714A2.889,2.889,0,0,0,23.33,8.826a2.506,2.506,0,0,0,.026.34c.009.064.024.128.038.189L8.087,9.329a2.7,2.7,0,0,0,.043-.274c.007-.074.014-.151.014-.229A2.891,2.891,0,0,0,5.11,6.111,2.889,2.889,0,0,0,2.079,8.826a2.174,2.174,0,0,0,.026.34.449.449,0,0,0,.009.052l.005.026-.527-.106A1.863,1.863,0,0,1,.01,7.175,3.52,3.52,0,0,1,.759,5.232C2.111,3.653,7.784,2.99,7.841,2.983A39.139,39.139,0,0,1,14.364.64,26.9,26.9,0,0,1,20.58,0a49.373,49.373,0,0,1,7.769.666.816.816,0,0,1,.712.749l1.792,1.778a1.306,1.306,0,0,1,.4.929l0,1.31.487.414a.6.6,0,0,1,.215.478l-.017.4a2.633,2.633,0,0,1-1.527,2.211l-.87.428ZM19.655.837a22.1,22.1,0,0,0-8.573,1.494l-.234.837a1.259,1.259,0,0,1,.21.828l9.5-.669V.851C20.277.842,19.972.837,19.655.837ZM21.606.9h0v2.35l4.469-.317.584-.615a.427.427,0,0,0,.1-.442.5.5,0,0,0-.369-.3A32.54,32.54,0,0,0,21.606.9Z" transform="translate(463.436 2243.061)" fill="#008081"/>
    </g>
  </g>
</svg>
