<svg xmlns="http://www.w3.org/2000/svg" width="79.868" height="60.418" viewBox="0 0 79.868 60.418">
  <g id="subscription_1_" data-name="subscription (1)" transform="translate(0.1 -62.4)">
    <g id="Group_7814" data-name="Group 7814" transform="translate(0 62.5)">
      <path id="Path_4065" data-name="Path 4065" d="M76.945,68.413H74.066a1.167,1.167,0,0,0,0,2.334h2.879a.39.39,0,0,1,.389.389v40.456a.39.39,0,0,1-.389.389H57.184V97.433a1.167,1.167,0,1,0-2.334,0V116.26a.39.39,0,0,1-.389.389H50.181v-.233a3.5,3.5,0,0,0-3.5-3.5H32.988a3.5,3.5,0,0,0-3.5,3.5v.233H25.207a.39.39,0,0,1-.389-.389V74.015H54.85V91.986a1.167,1.167,0,0,0,2.334,0V70.747H68.62a1.167,1.167,0,0,0,0-2.334H57.184v-3.19A2.726,2.726,0,0,0,54.461,62.5H25.207a2.726,2.726,0,0,0-2.723,2.723v3.19H2.723A2.726,2.726,0,0,0,0,71.136v40.456a2.726,2.726,0,0,0,2.723,2.723h9.725a1.167,1.167,0,1,0,0-2.334H2.723a.39.39,0,0,1-.389-.389V71.136a.39.39,0,0,1,.389-.389H22.484v41.234h-4.59a1.167,1.167,0,1,0,0,2.334h4.59v1.945a2.726,2.726,0,0,0,2.723,2.723h4.279v.233a3.5,3.5,0,0,0,3.5,3.5H46.68a3.5,3.5,0,0,0,3.5-3.5v-.233h4.279a2.726,2.726,0,0,0,2.723-2.723v-1.945H76.945a2.726,2.726,0,0,0,2.723-2.723V71.136A2.726,2.726,0,0,0,76.945,68.413Zm-52.127-3.19a.39.39,0,0,1,.389-.389H54.461a.39.39,0,0,1,.389.389v6.457H24.818Zm23.029,53.994a1.168,1.168,0,0,1-1.167,1.167H32.988a1.168,1.168,0,0,1-1.167-1.167v-2.8a1.168,1.168,0,0,1,1.167-1.167H46.68a1.168,1.168,0,0,1,1.167,1.167Z" transform="translate(0 -62.5)" fill="#fff" stroke="#fff" stroke-width="0.2"/>
      <path id="Path_4066" data-name="Path 4066" d="M254.215,164.5H243.167a1.167,1.167,0,0,0,0,2.334h11.048a1.167,1.167,0,0,0,0-2.334Z" transform="translate(-204.344 -148.629)" fill="#fff" stroke="#fff" stroke-width="0.2"/>
      <path id="Path_4067" data-name="Path 4067" d="M254.215,191H243.167a1.167,1.167,0,0,0,0,2.334h11.048a1.167,1.167,0,0,0,0-2.334Z" transform="translate(-204.344 -171.005)" fill="#fff" stroke="#fff" stroke-width="0.2"/>
      <path id="Path_4068" data-name="Path 4068" d="M254.215,217.5H243.167a1.167,1.167,0,1,0,0,2.334h11.048a1.167,1.167,0,0,0,0-2.334Z" transform="translate(-204.344 -193.382)" fill="#fff" stroke="#fff" stroke-width="0.2"/>
      <path id="Path_4069" data-name="Path 4069" d="M225.927,257.5h-16.26a1.167,1.167,0,1,0,0,2.334h16.26a1.167,1.167,0,1,0,0-2.334Z" transform="translate(-176.057 -227.158)" fill="#fff" stroke="#fff" stroke-width="0.2"/>
      <path id="Path_4070" data-name="Path 4070" d="M225.927,289.5h-16.26a1.167,1.167,0,1,0,0,2.334h16.26a1.167,1.167,0,1,0,0-2.334Z" transform="translate(-176.057 -254.178)" fill="#fff" stroke="#fff" stroke-width="0.2"/>
      <path id="Path_4071" data-name="Path 4071" d="M225.927,321.5h-16.26a1.167,1.167,0,1,0,0,2.334h16.26a1.167,1.167,0,1,0,0-2.334Z" transform="translate(-176.057 -281.199)" fill="#fff" stroke="#fff" stroke-width="0.2"/>
      <path id="Path_4072" data-name="Path 4072" d="M225.927,353.5h-16.26a1.167,1.167,0,0,0,0,2.334h16.26a1.167,1.167,0,1,0,0-2.334Z" transform="translate(-176.057 -308.22)" fill="#fff" stroke="#fff" stroke-width="0.2"/>
      <path id="Path_4073" data-name="Path 4073" d="M185.478,257.5h-.311a1.167,1.167,0,1,0,0,2.334h.311a1.167,1.167,0,0,0,0-2.334Z" transform="translate(-155.369 -227.158)" fill="#fff" stroke="#fff" stroke-width="0.2"/>
      <path id="Path_4074" data-name="Path 4074" d="M185.478,289.5h-.311a1.167,1.167,0,1,0,0,2.334h.311a1.167,1.167,0,0,0,0-2.334Z" transform="translate(-155.369 -254.178)" fill="#fff" stroke="#fff" stroke-width="0.2"/>
      <path id="Path_4075" data-name="Path 4075" d="M185.478,321.5h-.311a1.167,1.167,0,1,0,0,2.334h.311a1.167,1.167,0,0,0,0-2.334Z" transform="translate(-155.369 -281.199)" fill="#fff" stroke="#fff" stroke-width="0.2"/>
      <path id="Path_4076" data-name="Path 4076" d="M185.478,353.5h-.311a1.167,1.167,0,1,0,0,2.334h.311a1.167,1.167,0,0,0,0-2.334Z" transform="translate(-155.369 -308.22)" fill="#fff" stroke="#fff" stroke-width="0.2"/>
      <path id="Path_4077" data-name="Path 4077" d="M227.626,410.5h-9.958a1.167,1.167,0,1,0,0,2.334h9.958a1.167,1.167,0,0,0,0-2.334Z" transform="translate(-182.812 -356.351)" fill="#fff" stroke="#fff" stroke-width="0.2"/>
      <path id="Path_4078" data-name="Path 4078" d="M417.959,298h-8.792a1.167,1.167,0,0,0,0,2.334h8.792a1.167,1.167,0,0,0,0-2.334Z" transform="translate(-344.515 -261.356)" fill="#fff" stroke="#fff" stroke-width="0.2"/>
      <path id="Path_4079" data-name="Path 4079" d="M384.978,298h-.311a1.167,1.167,0,0,0,0,2.334h.311a1.167,1.167,0,0,0,0-2.334Z" transform="translate(-323.827 -261.356)" fill="#fff" stroke="#fff" stroke-width="0.2"/>
      <path id="Path_4080" data-name="Path 4080" d="M417.959,330h-8.792a1.167,1.167,0,0,0,0,2.334h8.792a1.167,1.167,0,0,0,0-2.334Z" transform="translate(-344.515 -288.377)" fill="#fff" stroke="#fff" stroke-width="0.2"/>
      <path id="Path_4081" data-name="Path 4081" d="M384.978,330h-.311a1.167,1.167,0,0,0,0,2.334h.311a1.167,1.167,0,0,0,0-2.334Z" transform="translate(-323.827 -288.377)" fill="#fff" stroke="#fff" stroke-width="0.2"/>
      <path id="Path_4082" data-name="Path 4082" d="M417.959,266h-8.792a1.167,1.167,0,0,0,0,2.334h8.792a1.167,1.167,0,0,0,0-2.334Z" transform="translate(-344.515 -234.335)" fill="#fff" stroke="#fff" stroke-width="0.2"/>
      <path id="Path_4083" data-name="Path 4083" d="M384.978,266h-.311a1.167,1.167,0,0,0,0,2.334h.311a1.167,1.167,0,0,0,0-2.334Z" transform="translate(-323.827 -234.335)" fill="#fff" stroke="#fff" stroke-width="0.2"/>
      <path id="Path_4084" data-name="Path 4084" d="M417.959,233h-8.792a1.167,1.167,0,0,0,0,2.334h8.792a1.167,1.167,0,0,0,0-2.334Z" transform="translate(-344.515 -206.47)" fill="#fff" stroke="#fff" stroke-width="0.2"/>
      <path id="Path_4085" data-name="Path 4085" d="M384.978,233h-.311a1.167,1.167,0,0,0,0,2.334h.311a1.167,1.167,0,0,0,0-2.334Z" transform="translate(-323.827 -206.47)" fill="#fff" stroke="#fff" stroke-width="0.2"/>
      <path id="Path_4086" data-name="Path 4086" d="M66.958,298H58.167a1.167,1.167,0,0,0,0,2.334h8.791a1.167,1.167,0,0,0,0-2.334Z" transform="translate(-48.131 -261.356)" fill="#fff" stroke="#fff" stroke-width="0.2"/>
      <path id="Path_4087" data-name="Path 4087" d="M33.978,298h-.311a1.167,1.167,0,0,0,0,2.334h.311a1.167,1.167,0,0,0,0-2.334Z" transform="translate(-27.443 -261.356)" fill="#fff" stroke="#fff" stroke-width="0.2"/>
      <path id="Path_4088" data-name="Path 4088" d="M58.167,332.334h8.791a1.167,1.167,0,1,0,0-2.334H58.167a1.167,1.167,0,1,0,0,2.334Z" transform="translate(-48.131 -288.377)" fill="#fff" stroke="#fff" stroke-width="0.2"/>
      <path id="Path_4089" data-name="Path 4089" d="M33.978,330h-.311a1.167,1.167,0,1,0,0,2.334h.311a1.167,1.167,0,1,0,0-2.334Z" transform="translate(-27.443 -288.377)" fill="#fff" stroke="#fff" stroke-width="0.2"/>
      <path id="Path_4090" data-name="Path 4090" d="M66.958,266H58.167a1.167,1.167,0,1,0,0,2.334h8.791a1.167,1.167,0,1,0,0-2.334Z" transform="translate(-48.131 -234.335)" fill="#fff" stroke="#fff" stroke-width="0.2"/>
      <path id="Path_4091" data-name="Path 4091" d="M33.978,266h-.311a1.167,1.167,0,1,0,0,2.334h.311a1.167,1.167,0,1,0,0-2.334Z" transform="translate(-27.443 -234.335)" fill="#fff" stroke="#fff" stroke-width="0.2"/>
      <path id="Path_4092" data-name="Path 4092" d="M66.958,233H58.167a1.167,1.167,0,1,0,0,2.334h8.791a1.167,1.167,0,1,0,0-2.334Z" transform="translate(-48.131 -206.47)" fill="#fff" stroke="#fff" stroke-width="0.2"/>
      <path id="Path_4093" data-name="Path 4093" d="M33.978,233h-.311a1.167,1.167,0,1,0,0,2.334h.311a1.167,1.167,0,1,0,0-2.334Z" transform="translate(-27.443 -206.47)" fill="#fff" stroke="#fff" stroke-width="0.2"/>
      <path id="Path_4094" data-name="Path 4094" d="M396.5,146.946a5.446,5.446,0,1,0,5.446-5.446A5.452,5.452,0,0,0,396.5,146.946Zm8.558,0a3.112,3.112,0,1,1-3.112-3.112A3.116,3.116,0,0,1,405.058,146.946Z" transform="translate(-334.804 -129.207)" fill="#fff" stroke="#fff" stroke-width="0.2"/>
      <path id="Path_4095" data-name="Path 4095" d="M50.946,152.392a5.446,5.446,0,1,0-5.446-5.446A5.452,5.452,0,0,0,50.946,152.392Zm0-8.558a3.112,3.112,0,1,1-3.112,3.112A3.116,3.116,0,0,1,50.946,143.834Z" transform="translate(-38.42 -129.207)" fill="#fff" stroke="#fff" stroke-width="0.2"/>
      <path id="Path_4096" data-name="Path 4096" d="M209.717,91.5h-18.05a1.167,1.167,0,1,0,0,2.334h18.05a1.167,1.167,0,1,0,0-2.334Z" transform="translate(-160.858 -86.988)" fill="#fff" stroke="#fff" stroke-width="0.2"/>
      <path id="Path_4097" data-name="Path 4097" d="M187.7,167.921a1.167,1.167,0,0,0,1.167-1.167v-.518a2.8,2.8,0,0,0-.267-5.578h-1.8a.462.462,0,1,1,0-.923h3.171a1.167,1.167,0,0,0,0-2.334h-1.1v-.5a1.167,1.167,0,0,0-2.334,0v.518a2.8,2.8,0,0,0,.267,5.578h1.8a.462.462,0,1,1,0,.923h-3.171a1.167,1.167,0,1,0,0,2.334h1.1v.5A1.167,1.167,0,0,0,187.7,167.921Z" transform="translate(-155.369 -141.223)" fill="#fff" stroke="#fff" stroke-width="0.2"/>
    </g>
  </g>
</svg>
